<?xml version="1.0" encoding="UTF-8" standalone="no"?>
<!-- Created with Inkscape (http://www.inkscape.org/) -->
<svg
   xmlns:dc="http://purl.org/dc/elements/1.1/"
   xmlns:cc="http://creativecommons.org/ns#"
   xmlns:rdf="http://www.w3.org/1999/02/22-rdf-syntax-ns#"
   xmlns:svg="http://www.w3.org/2000/svg"
   xmlns="http://www.w3.org/2000/svg"
   xmlns:sodipodi="http://sodipodi.sourceforge.net/DTD/sodipodi-0.dtd"
   xmlns:inkscape="http://www.inkscape.org/namespaces/inkscape"
   width="640"
   height="480"
   id="svg3578"
   sodipodi:version="0.32"
   inkscape:version="0.46"
   version="1.0"
   sodipodi:docname="splash.svg"
   inkscape:output_extension="org.inkscape.output.svg.inkscape"
   inkscape:export-filename="/home/bubla/projects/garden2/resources/splash.png"
   inkscape:export-xdpi="90"
   inkscape:export-ydpi="90">
  <defs
     id="defs3580">
    <inkscape:perspective
       sodipodi:type="inkscape:persp3d"
       inkscape:vp_x="0 : 526.18109 : 1"
       inkscape:vp_y="0 : 1000 : 0"
       inkscape:vp_z="744.09448 : 526.18109 : 1"
       inkscape:persp3d-origin="372.04724 : 350.78739 : 1"
       id="perspective3586" />
  </defs>
  <sodipodi:namedview
     id="base"
     pagecolor="#ffffff"
     bordercolor="#666666"
     borderopacity="1.0"
     gridtolerance="10000"
     guidetolerance="10"
     objecttolerance="10"
     inkscape:pageopacity="0.0"
     inkscape:pageshadow="2"
     inkscape:zoom="1.979899"
     inkscape:cx="285.20153"
     inkscape:cy="284.00771"
     inkscape:document-units="px"
     inkscape:current-layer="layer1"
     showgrid="false"
     inkscape:window-width="1280"
     inkscape:window-height="934"
     inkscape:window-x="0"
     inkscape:window-y="30" />
  <metadata
     id="metadata3583">
    <rdf:RDF>
      <cc:Work
         rdf:about="">
        <dc:format>image/svg+xml</dc:format>
        <dc:type
           rdf:resource="http://purl.org/dc/dcmitype/StillImage" />
      </cc:Work>
    </rdf:RDF>
  </metadata>
  <g
     inkscape:label="Layer 1"
     inkscape:groupmode="layer"
     id="layer1">
    <rect
       style="opacity:1;fill:#282828;fill-opacity:1;fill-rule:nonzero;stroke:#000000;stroke-width:0.5;stroke-linecap:round;stroke-linejoin:miter;stroke-miterlimit:4;stroke-dasharray:none;stroke-dashoffset:0;stroke-opacity:1"
       id="rect2453"
       width="674.28467"
       height="499.99966"
       x="-8.5714216"
       y="-4.2857184" />
    <rect
       y="31.788618"
       x="29.542038"
       height="78.171249"
       width="71.064766"
       id="rect3240"
       style="opacity:1;fill:#2c4130;fill-opacity:1;fill-rule:nonzero;stroke:none;stroke-width:0.45338199;stroke-linecap:round;stroke-linejoin:miter;stroke-miterlimit:4;stroke-dasharray:none;stroke-dashoffset:0;stroke-opacity:1" />
    <rect
       style="opacity:1;fill:#2c4130;fill-opacity:1;fill-rule:nonzero;stroke:none;stroke-width:1;stroke-linecap:round;stroke-linejoin:miter;stroke-miterlimit:4;stroke-dasharray:none;stroke-dashoffset:0;stroke-opacity:1"
       id="rect3236"
       width="18.087875"
       height="144.70944"
       x="210.58299"
       y="276.18774" />
    <rect
       y="367.29501"
       x="487.82343"
       height="144.70944"
       width="24.455587"
       id="rect3528"
       style="opacity:1;fill:#2c4130;fill-opacity:1;fill-rule:nonzero;stroke:none;stroke-width:1;stroke-linecap:round;stroke-linejoin:miter;stroke-miterlimit:4;stroke-dasharray:none;stroke-dashoffset:0;stroke-opacity:1" />
    <rect
       style="opacity:1;fill:#2c4130;fill-opacity:1;fill-rule:nonzero;stroke:none;stroke-width:1;stroke-linecap:round;stroke-linejoin:miter;stroke-miterlimit:4;stroke-dasharray:none;stroke-dashoffset:0;stroke-opacity:1"
       id="rect2469"
       width="131.55402"
       height="144.70944"
       x="234.20297"
       y="276.54929" />
    <rect
       style="opacity:1;fill:#3c4d41;fill-opacity:1;fill-rule:nonzero;stroke:none;stroke-width:1.10344398;stroke-linecap:round;stroke-linejoin:miter;stroke-miterlimit:4;stroke-dasharray:none;stroke-dashoffset:0;stroke-opacity:1"
       id="rect2463"
       width="184.75981"
       height="149.8237"
       x="163.22285"
       y="50.743011" />
    <rect
       style="opacity:1;fill:#2c4130;fill-opacity:1;fill-rule:nonzero;stroke:none;stroke-width:1;stroke-linecap:round;stroke-linejoin:miter;stroke-miterlimit:4;stroke-dasharray:none;stroke-dashoffset:0;stroke-opacity:1"
       id="rect3322"
       width="40.129959"
       height="144.70944"
       x="440.03204"
       y="314.64859" />
    <rect
       y="185.36124"
       x="466.34467"
       height="121.91798"
       width="157.31352"
       id="rect2467"
       style="opacity:1;fill:#3c4d41;fill-opacity:1;fill-rule:nonzero;stroke:none;stroke-width:1;stroke-linecap:round;stroke-linejoin:miter;stroke-miterlimit:4;stroke-dasharray:none;stroke-dashoffset:0;stroke-opacity:1" />
    <rect
       y="286.93997"
       x="373.41852"
       height="144.70944"
       width="58.952133"
       id="rect3320"
       style="opacity:1;fill:#2c4130;fill-opacity:1;fill-rule:nonzero;stroke:none;stroke-width:1;stroke-linecap:round;stroke-linejoin:miter;stroke-miterlimit:4;stroke-dasharray:none;stroke-dashoffset:0;stroke-opacity:1" />
    <rect
       y="472.91287"
       x="188.26831"
       height="97.330719"
       width="88.482483"
       id="rect2471"
       style="opacity:1;fill:#2c4130;fill-opacity:1;fill-rule:nonzero;stroke:none;stroke-width:0.67699844;stroke-linecap:round;stroke-linejoin:miter;stroke-miterlimit:4;stroke-dasharray:none;stroke-dashoffset:0;stroke-opacity:1" />
    <rect
       style="opacity:1;fill:#3c4d41;fill-opacity:1;fill-rule:nonzero;stroke:none;stroke-width:0.75165176;stroke-linecap:round;stroke-linejoin:miter;stroke-miterlimit:4;stroke-dasharray:none;stroke-dashoffset:0;stroke-opacity:1"
       id="rect2475"
       width="141.64183"
       height="137.6958"
       x="2.8798203"
       y="467.26678" />
    <rect
       y="119.01065"
       x="18.398312"
       height="56.73954"
       width="51.581394"
       id="rect2479"
       style="opacity:1;fill:#2c4130;fill-opacity:1;fill-rule:nonzero;stroke:none;stroke-width:0.32908115;stroke-linecap:round;stroke-linejoin:miter;stroke-miterlimit:4;stroke-dasharray:none;stroke-dashoffset:0;stroke-opacity:1" />
    <rect
       y="425.80826"
       x="578.96014"
       height="108.41417"
       width="72.738945"
       id="rect3540"
       style="opacity:1;fill:#2c4130;fill-opacity:1;fill-rule:nonzero;stroke:none;stroke-width:0.67699844;stroke-linecap:round;stroke-linejoin:miter;stroke-miterlimit:4;stroke-dasharray:none;stroke-dashoffset:0;stroke-opacity:1" />
    <rect
       style="opacity:1;fill:#3c4d41;fill-opacity:1;fill-rule:nonzero;stroke:none;stroke-width:1.24893618;stroke-linecap:round;stroke-linejoin:miter;stroke-miterlimit:4;stroke-dasharray:none;stroke-dashoffset:0;stroke-opacity:1"
       id="rect3271"
       width="113.35085"
       height="26.379217"
       x="541.55536"
       y="436.62015" />
    <g
       id="g3304"
       transform="matrix(0.4037473,0,0,0.4037473,201.09942,-122.32035)">
      <rect
         style="opacity:1;fill:none;fill-opacity:1;fill-rule:nonzero;stroke:#4d694d;stroke-width:20;stroke-linecap:round;stroke-linejoin:miter;stroke-miterlimit:4;stroke-dasharray:none;stroke-dashoffset:0;stroke-opacity:1"
         id="rect3306"
         width="160"
         height="160"
         x="610.71429"
         y="434.28571"
         rx="37.142857"
         ry="37.142857" />
      <rect
         ry="46.244061"
         rx="46.244061"
         y="414.68307"
         x="591.11169"
         height="199.20518"
         width="199.20518"
         id="rect3308"
         style="opacity:1;fill:none;fill-opacity:1;fill-rule:nonzero;stroke:#4d694d;stroke-width:3.5999999;stroke-linecap:round;stroke-linejoin:miter;stroke-miterlimit:4;stroke-dasharray:none;stroke-dashoffset:0;stroke-opacity:1" />
      <rect
         style="opacity:1;fill:none;fill-opacity:1;fill-rule:nonzero;stroke:#4d694d;stroke-width:3.4000001;stroke-linecap:round;stroke-linejoin:miter;stroke-miterlimit:4;stroke-dasharray:none;stroke-dashoffset:0;stroke-opacity:1"
         id="rect3310"
         width="116.5494"
         height="116.5494"
         x="632.43958"
         y="456.01096"
         rx="27.05611"
         ry="27.05611" />
    </g>
    <g
       transform="matrix(0.2876145,0,0,0.2876145,237.67298,10.937414)"
       id="g3312">
      <rect
         ry="37.142857"
         rx="37.142857"
         y="434.28571"
         x="610.71429"
         height="160"
         width="160"
         id="rect3314"
         style="opacity:1;fill:none;fill-opacity:1;fill-rule:nonzero;stroke:#4d694d;stroke-width:20;stroke-linecap:round;stroke-linejoin:miter;stroke-miterlimit:4;stroke-dasharray:none;stroke-dashoffset:0;stroke-opacity:1" />
      <rect
         style="opacity:1;fill:none;fill-opacity:1;fill-rule:nonzero;stroke:#4d694d;stroke-width:3.5999999;stroke-linecap:round;stroke-linejoin:miter;stroke-miterlimit:4;stroke-dasharray:none;stroke-dashoffset:0;stroke-opacity:1"
         id="rect3316"
         width="199.20518"
         height="199.20518"
         x="591.11169"
         y="414.68307"
         rx="46.244061"
         ry="46.244061" />
      <rect
         ry="27.05611"
         rx="27.05611"
         y="456.01096"
         x="632.43958"
         height="116.5494"
         width="116.5494"
         id="rect3318"
         style="opacity:1;fill:none;fill-opacity:1;fill-rule:nonzero;stroke:#4d694d;stroke-width:3.4000001;stroke-linecap:round;stroke-linejoin:miter;stroke-miterlimit:4;stroke-dasharray:none;stroke-dashoffset:0;stroke-opacity:1" />
    </g>
    <g
       id="g2386"
       transform="matrix(-2.1042581,3.4095607,-3.4095607,-2.1042581,228.83198,207.44765)"
       style="opacity:0.6">
      <path
         sodipodi:nodetypes="ccccc"
         id="path2475"
         d="M 12.633648,7.3469356 L 14.718215,0.66008103 L 18.45419,6.5212322 L 16.775708,16.362006 L 12.633648,7.3469356 z"
         style="opacity:1;fill:#ae86ae;fill-opacity:1;fill-rule:evenodd;stroke:#000000;stroke-width:0.12102496;stroke-linecap:butt;stroke-linejoin:miter;stroke-miterlimit:4;stroke-dasharray:none;stroke-opacity:1" />
      <path
         sodipodi:nodetypes="ccccc"
         id="path3249"
         d="M 7.435769,12.40945 L 0.77598609,14.27744 L 6.3258049,17.823911 L 16.477913,16.849307 L 7.435769,12.40945 z"
         style="fill:#ae86ae;fill-opacity:1;fill-rule:evenodd;stroke:#000000;stroke-width:0.12102496;stroke-linecap:butt;stroke-linejoin:miter;stroke-miterlimit:4;stroke-dasharray:none;stroke-opacity:1" />
      <path
         sodipodi:nodetypes="ccccc"
         id="path3251"
         d="M 14.799431,27.461643 L 9.5203354,31.360055 L 9.8452025,24.321259 L 16.775708,17.174175 L 14.799431,27.461643 z"
         style="fill:#ae86ae;fill-opacity:1;fill-rule:evenodd;stroke:#000000;stroke-width:0.12102496;stroke-linecap:butt;stroke-linejoin:miter;stroke-miterlimit:4;stroke-dasharray:none;stroke-opacity:1" />
      <path
         sodipodi:nodetypes="ccccc"
         id="path3253"
         d="M 28.200214,28.517462 L 26.359298,21.911825 L 17.208865,17.147101 L 21.811154,26.378751 L 28.200214,28.517462 z"
         style="fill:#ae86ae;fill-opacity:1;fill-rule:evenodd;stroke:#000000;stroke-width:0.12102496;stroke-linecap:butt;stroke-linejoin:miter;stroke-miterlimit:4;stroke-dasharray:none;stroke-opacity:1" />
      <path
         sodipodi:nodetypes="ccccc"
         id="path3255"
         d="M 27.658768,15.00839 L 31.286457,10.081235 L 24.464238,9.8917289 L 17.642022,16.63273 L 27.658768,15.00839 z"
         style="opacity:1;fill:#ae86ae;fill-opacity:1;fill-rule:evenodd;stroke:#000000;stroke-width:0.12102496;stroke-linecap:butt;stroke-linejoin:miter;stroke-miterlimit:4;stroke-dasharray:none;stroke-opacity:1" />
      <path
         transform="matrix(0.3032096,0,0,0.3032096,0.1533237,-48.97578)"
         d="M 63.124999,217.63004 A 7.5892859,7.5892859 0 1 1 47.946427,217.63004 A 7.5892859,7.5892859 0 1 1 63.124999,217.63004 z"
         sodipodi:ry="7.5892859"
         sodipodi:rx="7.5892859"
         sodipodi:cy="217.63004"
         sodipodi:cx="55.535713"
         id="path3257"
         style="opacity:1;fill:#b6658e;fill-opacity:1;fill-rule:nonzero;stroke:#000000;stroke-width:0.3991462;stroke-linecap:round;stroke-linejoin:miter;stroke-miterlimit:4;stroke-dasharray:none;stroke-dashoffset:0;stroke-opacity:1"
         sodipodi:type="arc" />
    </g>
    <g
       transform="matrix(3.4698349,2.0033102,-2.0033102,3.4698349,116.95832,265.05062)"
       id="g3512"
       style="opacity:0.6">
      <path
         style="opacity:1;fill:#ae86ae;fill-opacity:1;fill-rule:evenodd;stroke:#000000;stroke-width:0.12102496;stroke-linecap:butt;stroke-linejoin:miter;stroke-miterlimit:4;stroke-dasharray:none;stroke-opacity:1"
         d="M 12.633648,7.3469356 L 14.718215,0.66008103 L 18.45419,6.5212322 L 16.775708,16.362006 L 12.633648,7.3469356 z"
         id="path3514"
         sodipodi:nodetypes="ccccc" />
      <path
         style="fill:#ae86ae;fill-opacity:1;fill-rule:evenodd;stroke:#000000;stroke-width:0.12102496;stroke-linecap:butt;stroke-linejoin:miter;stroke-miterlimit:4;stroke-dasharray:none;stroke-opacity:1"
         d="M 7.435769,12.40945 L 0.77598609,14.27744 L 6.3258049,17.823911 L 16.477913,16.849307 L 7.435769,12.40945 z"
         id="path3516"
         sodipodi:nodetypes="ccccc" />
      <path
         style="fill:#ae86ae;fill-opacity:1;fill-rule:evenodd;stroke:#000000;stroke-width:0.12102496;stroke-linecap:butt;stroke-linejoin:miter;stroke-miterlimit:4;stroke-dasharray:none;stroke-opacity:1"
         d="M 14.799431,27.461643 L 9.5203354,31.360055 L 9.8452025,24.321259 L 16.775708,17.174175 L 14.799431,27.461643 z"
         id="path3518"
         sodipodi:nodetypes="ccccc" />
      <path
         style="fill:#ae86ae;fill-opacity:1;fill-rule:evenodd;stroke:#000000;stroke-width:0.12102496;stroke-linecap:butt;stroke-linejoin:miter;stroke-miterlimit:4;stroke-dasharray:none;stroke-opacity:1"
         d="M 28.200214,28.517462 L 26.359298,21.911825 L 17.208865,17.147101 L 21.811154,26.378751 L 28.200214,28.517462 z"
         id="path3520"
         sodipodi:nodetypes="ccccc" />
      <path
         style="opacity:1;fill:#ae86ae;fill-opacity:1;fill-rule:evenodd;stroke:#000000;stroke-width:0.12102496;stroke-linecap:butt;stroke-linejoin:miter;stroke-miterlimit:4;stroke-dasharray:none;stroke-opacity:1"
         d="M 27.658768,15.00839 L 31.286457,10.081235 L 24.464238,9.8917289 L 17.642022,16.63273 L 27.658768,15.00839 z"
         id="path3522"
         sodipodi:nodetypes="ccccc" />
      <path
         sodipodi:type="arc"
         style="opacity:1;fill:#b6658e;fill-opacity:1;fill-rule:nonzero;stroke:#000000;stroke-width:0.3991462;stroke-linecap:round;stroke-linejoin:miter;stroke-miterlimit:4;stroke-dasharray:none;stroke-dashoffset:0;stroke-opacity:1"
         id="path3524"
         sodipodi:cx="55.535713"
         sodipodi:cy="217.63004"
         sodipodi:rx="7.5892859"
         sodipodi:ry="7.5892859"
         d="M 63.124999,217.63004 A 7.5892859,7.5892859 0 1 1 47.946427,217.63004 A 7.5892859,7.5892859 0 1 1 63.124999,217.63004 z"
         transform="matrix(0.3032096,0,0,0.3032096,0.1533237,-48.97578)" />
    </g>
    <rect
       style="opacity:1;fill:#3c4d41;fill-opacity:1;fill-rule:nonzero;stroke:none;stroke-width:1.24893618;stroke-linecap:round;stroke-linejoin:miter;stroke-miterlimit:4;stroke-dasharray:none;stroke-dashoffset:0;stroke-opacity:1"
       id="rect3526"
       width="85.689445"
       height="87.338211"
       x="550.81915"
       y="261.24872" />
    <g
       transform="matrix(0.458398,0,0,0.458398,71.190526,178.13959)"
       id="g3530">
      <rect
         ry="37.142857"
         rx="37.142857"
         y="434.28571"
         x="610.71429"
         height="160"
         width="160"
         id="rect3532"
         style="opacity:1;fill:none;fill-opacity:1;fill-rule:nonzero;stroke:#4d694d;stroke-width:20;stroke-linecap:round;stroke-linejoin:miter;stroke-miterlimit:4;stroke-dasharray:none;stroke-dashoffset:0;stroke-opacity:1" />
      <rect
         style="opacity:1;fill:none;fill-opacity:1;fill-rule:nonzero;stroke:#4d694d;stroke-width:3.5999999;stroke-linecap:round;stroke-linejoin:miter;stroke-miterlimit:4;stroke-dasharray:none;stroke-dashoffset:0;stroke-opacity:1"
         id="rect3534"
         width="199.20518"
         height="199.20518"
         x="591.11169"
         y="414.68307"
         rx="46.244061"
         ry="46.244061" />
      <rect
         ry="27.05611"
         rx="27.05611"
         y="456.01096"
         x="632.43958"
         height="116.5494"
         width="116.5494"
         id="rect3536"
         style="opacity:1;fill:none;fill-opacity:1;fill-rule:nonzero;stroke:#4d694d;stroke-width:3.4000001;stroke-linecap:round;stroke-linejoin:miter;stroke-miterlimit:4;stroke-dasharray:none;stroke-dashoffset:0;stroke-opacity:1" />
    </g>
    <g
       id="g3634"
       transform="translate(211.42857,41.428571)">
      <g
         transform="matrix(0.4999904,0,0,0.4999904,15.293132,-10.84389)"
         id="g3264">
        <path
           sodipodi:type="arc"
           style="opacity:1;fill:#ffff00;fill-opacity:0.16901407;fill-rule:nonzero;stroke:#ffff00;stroke-width:6;stroke-linecap:butt;stroke-linejoin:miter;stroke-miterlimit:4;stroke-dasharray:none;stroke-dashoffset:0;stroke-opacity:1"
           id="path3170"
           sodipodi:cx="430.71429"
           sodipodi:cy="695.93359"
           sodipodi:rx="20.357141"
           sodipodi:ry="20.357141"
           d="M 451.07144,695.93359 A 20.357141,20.357141 0 1 1 410.35715,695.93359 A 20.357141,20.357141 0 1 1 451.07144,695.93359 z"
           transform="translate(-3.9285714,2.5)" />
        <path
           transform="translate(-71.964286,2.5)"
           d="M 451.07144,695.93359 A 20.357141,20.357141 0 1 1 410.35715,695.93359 A 20.357141,20.357141 0 1 1 451.07144,695.93359 z"
           sodipodi:ry="20.357141"
           sodipodi:rx="20.357141"
           sodipodi:cy="695.93359"
           sodipodi:cx="430.71429"
           id="path3172"
           style="opacity:1;fill:#ffff00;fill-opacity:0.16901407;fill-rule:nonzero;stroke:#ffff00;stroke-width:6;stroke-linecap:butt;stroke-linejoin:miter;stroke-miterlimit:4;stroke-dasharray:none;stroke-dashoffset:0;stroke-opacity:1"
           sodipodi:type="arc" />
        <rect
           style="opacity:1;fill:#929292;fill-opacity:1;fill-rule:nonzero;stroke:#000000;stroke-width:3;stroke-linecap:butt;stroke-linejoin:miter;stroke-miterlimit:4;stroke-dasharray:none;stroke-dashoffset:0;stroke-opacity:1"
           id="rect3212"
           width="60.714287"
           height="60.714287"
           x="363.03574"
           y="636.44238" />
        <path
           style="fill:#555555;fill-opacity:1;fill-rule:evenodd;stroke:#000000;stroke-width:5;stroke-linecap:round;stroke-linejoin:miter;stroke-miterlimit:4;stroke-dasharray:none;stroke-opacity:1"
           d="M 379.15047,664.579 L 361.11475,664.579 L 361.11475,653.50757 L 379.29613,643.01055 L 379.15047,664.579 z"
           id="path3220" />
        <path
           id="path3222"
           d="M 406.40463,664.579 L 424.44035,664.579 L 424.44035,653.50757 L 406.25897,643.01055 L 406.40463,664.579 z"
           style="fill:#555555;fill-opacity:1;fill-rule:evenodd;stroke:#000000;stroke-width:5;stroke-linecap:round;stroke-linejoin:miter;stroke-miterlimit:4;stroke-dasharray:none;stroke-opacity:1" />
        <rect
           style="opacity:1;fill:#828282;fill-opacity:1;fill-rule:nonzero;stroke:#000000;stroke-width:5;stroke-linecap:round;stroke-linejoin:miter;stroke-miterlimit:4;stroke-dasharray:none;stroke-dashoffset:0;stroke-opacity:1"
           id="rect3214"
           width="27.678572"
           height="20.714285"
           x="378.92856"
           y="643.43359" />
        <rect
           y="634.62231"
           x="382.0853"
           height="9.2856264"
           width="21.238857"
           id="rect3216"
           style="opacity:1;fill:#e0e0e0;fill-opacity:1;fill-rule:nonzero;stroke:#000000;stroke-width:4;stroke-linecap:round;stroke-linejoin:miter;stroke-miterlimit:4;stroke-dasharray:none;stroke-dashoffset:0;stroke-opacity:1"
           rx="3.237458"
           ry="3.237458" />
        <rect
           style="opacity:1;fill:#555555;fill-opacity:1;fill-rule:nonzero;stroke:#000000;stroke-width:4.4000001;stroke-linecap:round;stroke-linejoin:miter;stroke-miterlimit:4;stroke-dasharray:none;stroke-dashoffset:0;stroke-opacity:1"
           id="rect3218"
           width="27.678572"
           height="12.316165"
           x="378.92856"
           y="664.84949" />
        <path
           style="fill:#555555;fill-opacity:1;fill-rule:evenodd;stroke:#000000;stroke-width:4.80000019;stroke-linecap:butt;stroke-linejoin:miter;stroke-miterlimit:4;stroke-dasharray:none;stroke-opacity:1"
           d="M 379.82143,694.68361 L 406.25,694.68361 C 406.25,694.68361 397.99797,679.32647 392.5,679.32647 C 386.74975,679.32647 379.82143,694.68361 379.82143,694.68361 z"
           id="path3226"
           sodipodi:nodetypes="cczc" />
        <rect
           style="opacity:1;fill:#000000;fill-opacity:1;fill-rule:nonzero;stroke:#000000;stroke-width:0.59878504;stroke-linecap:butt;stroke-linejoin:miter;stroke-miterlimit:4;stroke-dasharray:none;stroke-dashoffset:0;stroke-opacity:1"
           id="rect3228"
           width="6.4597893"
           height="6.4597893"
           x="362.94461"
           y="690.9281" />
        <rect
           y="690.9281"
           x="417.35071"
           height="6.4597893"
           width="6.4597893"
           id="rect3230"
           style="opacity:1;fill:#000000;fill-opacity:1;fill-rule:nonzero;stroke:#000000;stroke-width:0.59878504;stroke-linecap:butt;stroke-linejoin:miter;stroke-miterlimit:4;stroke-dasharray:none;stroke-dashoffset:0;stroke-opacity:1" />
      </g>
      <g
         transform="matrix(0.4999904,0,0,0.4999904,-141.4805,22.992648)"
         id="g3276">
        <path
           sodipodi:type="arc"
           style="fill:#ffb400;fill-opacity:0.14101078;fill-rule:nonzero;stroke:#ffd800;stroke-width:3.77699995;stroke-linecap:butt;stroke-linejoin:miter;stroke-miterlimit:4;stroke-dasharray:none;stroke-dashoffset:0;stroke-opacity:1"
           id="path3180"
           sodipodi:cx="406.42856"
           sodipodi:cy="355.57648"
           sodipodi:rx="7.8571429"
           sodipodi:ry="7.8571429"
           d="M 414.2857,355.57648 A 7.8571429,7.8571429 0 1 1 398.57142,355.57648 A 7.8571429,7.8571429 0 1 1 414.2857,355.57648 z"
           transform="translate(333.70748,9.8056586)" />
        <path
           transform="translate(239.42177,9.8056586)"
           d="M 414.2857,355.57648 A 7.8571429,7.8571429 0 1 1 398.57142,355.57648 A 7.8571429,7.8571429 0 1 1 414.2857,355.57648 z"
           sodipodi:ry="7.8571429"
           sodipodi:rx="7.8571429"
           sodipodi:cy="355.57648"
           sodipodi:cx="406.42856"
           id="path3182"
           style="fill:#ffb400;fill-opacity:0.14101078;fill-rule:nonzero;stroke:#ffd800;stroke-width:3.77699995;stroke-linecap:butt;stroke-linejoin:miter;stroke-miterlimit:4;stroke-dasharray:none;stroke-dashoffset:0;stroke-opacity:1"
           sodipodi:type="arc" />
        <path
           sodipodi:type="arc"
           id="path3186"
           style="fill:#000000;stroke:none"
           sodipodi:cx="330"
           sodipodi:cy="326.64789"
           sodipodi:rx="1.5"
           sodipodi:ry="1.5"
           d="M 331.5,326.64789 A 1.5,1.5 0 1 1 328.5,326.64789 A 1.5,1.5 0 1 1 331.5,326.64789 z"
           transform="translate(333.35034,9.0913729)" />
        <path
           sodipodi:type="arc"
           id="path3188"
           style="fill:#000000;stroke:none"
           sodipodi:cx="389.28571"
           sodipodi:cy="327.71933"
           sodipodi:rx="1.5"
           sodipodi:ry="1.5"
           d="M 390.78571,327.71933 A 1.5,1.5 0 1 1 387.78571,327.71933 A 1.5,1.5 0 1 1 390.78571,327.71933 z"
           transform="translate(333.35034,9.0913729)" />
        <path
           style="fill:#8e8e8e;fill-opacity:1;fill-rule:evenodd;stroke:#000000;stroke-width:5;stroke-linecap:butt;stroke-linejoin:miter;stroke-miterlimit:4;stroke-dasharray:none;stroke-opacity:1"
           d="M 663.70748,336.09641 L 722.63605,336.09641 C 722.63605,336.09641 727.75908,358.59641 693.35034,358.59641 C 659.29845,358.59641 663.70748,336.09641 663.70748,336.09641 z"
           id="path3190"
           sodipodi:nodetypes="cczc" />
        <path
           style="fill:#8e8e8e;fill-opacity:1;fill-rule:evenodd;stroke:#000000;stroke-width:5;stroke-linecap:butt;stroke-linejoin:miter;stroke-miterlimit:4;stroke-dasharray:none;stroke-opacity:1"
           d="M 689.2432,288.77498 L 689.2432,328.41784 L 669.60034,328.41784 L 669.60034,303.06069 C 669.60034,303.06069 681.20749,287.88212 689.2432,288.77498 z"
           id="path3196"
           sodipodi:nodetypes="ccccc" />
        <path
           sodipodi:nodetypes="ccccc"
           id="path3198"
           d="M 696.56463,288.77498 L 696.56463,328.41784 L 716.20749,328.41784 L 716.20749,303.06069 C 716.20749,303.06069 704.60034,287.88212 696.56463,288.77498 z"
           style="fill:#8e8e8e;fill-opacity:1;fill-rule:evenodd;stroke:#000000;stroke-width:5;stroke-linecap:butt;stroke-linejoin:miter;stroke-miterlimit:4;stroke-dasharray:none;stroke-opacity:1" />
        <path
           sodipodi:type="arc"
           style="fill:#595959;fill-opacity:0.79929576;fill-rule:nonzero;stroke:#000000;stroke-width:2.45914507;stroke-linecap:butt;stroke-linejoin:miter;stroke-miterlimit:4;stroke-dasharray:none;stroke-dashoffset:0;stroke-opacity:1"
           id="path3206"
           sodipodi:cx="406.42856"
           sodipodi:cy="355.57648"
           sodipodi:rx="7.8571429"
           sodipodi:ry="7.8571429"
           d="M 414.2857,355.57648 A 7.8571429,7.8571429 0 1 1 398.57142,355.57648 A 7.8571429,7.8571429 0 1 1 414.2857,355.57648 z"
           transform="matrix(2.0332269,0,0,2.0332269,-133.18973,-390.62124)" />
        <path
           style="fill:#ffb400;fill-opacity:0.14101078;fill-rule:evenodd;stroke:#ffd800;stroke-width:5;stroke-linecap:butt;stroke-linejoin:miter;stroke-miterlimit:4;stroke-dasharray:none;stroke-opacity:1"
           d="M 676.73908,359.39753 L 676.73908,370.44608 C 676.73908,370.44608 676.19749,387.99748 693.02778,387.99748 C 709.79502,387.99748 710.76859,369.81473 710.76859,369.81473 L 710.76859,359.3344"
           id="path3288"
           sodipodi:nodetypes="cczcc" />
      </g>
      <g
         transform="matrix(0.4999904,0,0,0.4999904,-265.09255,-20.855945)"
         id="g3266">
        <rect
           style="opacity:1;fill:#8e8e8e;fill-opacity:1;fill-rule:nonzero;stroke:#000000;stroke-width:4.07675123;stroke-linecap:round;stroke-linejoin:miter;stroke-miterlimit:4;stroke-dasharray:none;stroke-dashoffset:0;stroke-opacity:1"
           id="rect3237"
           width="16.378645"
           height="61.539875"
           x="1220.535"
           y="450.34729" />
        <rect
           style="opacity:1;fill:#595959;fill-opacity:1;fill-rule:nonzero;stroke:#000000;stroke-width:5;stroke-linecap:round;stroke-linejoin:miter;stroke-miterlimit:4;stroke-dasharray:none;stroke-dashoffset:0;stroke-opacity:1"
           id="rect3239"
           width="28.284424"
           height="12.879414"
           x="1214.7084"
           y="461.08374" />
        <path
           id="path3264"
           d="M 1238.2243,505.23904 L 1260.2923,505.23904 L 1260.2923,488.06502 L 1249.4417,478.46857 L 1249.4417,494.18379 L 1238.4529,494.18379 L 1238.2243,505.23904 z"
           style="opacity:1;fill:#8e8e8e;fill-opacity:1;fill-rule:evenodd;stroke:#000000;stroke-width:5;stroke-linecap:butt;stroke-linejoin:miter;stroke-miterlimit:4;stroke-dasharray:none;stroke-opacity:1"
           sodipodi:nodetypes="ccccccc" />
        <path
           sodipodi:nodetypes="ccccccc"
           style="opacity:1;fill:#8e8e8e;fill-opacity:1;fill-rule:evenodd;stroke:#000000;stroke-width:5;stroke-linecap:butt;stroke-linejoin:miter;stroke-miterlimit:4;stroke-dasharray:none;stroke-opacity:1"
           d="M 1219.3811,505.23904 L 1197.3131,505.23904 L 1197.3131,488.06502 L 1208.1637,478.46857 L 1208.1637,494.18379 L 1219.1525,494.18379 L 1219.3811,505.23904 z"
           id="path3233" />
        <rect
           y="485.05692"
           x="1214.7084"
           height="12.879414"
           width="28.284424"
           id="rect3241"
           style="opacity:1;fill:#595959;fill-opacity:1;fill-rule:nonzero;stroke:#000000;stroke-width:5;stroke-linecap:round;stroke-linejoin:miter;stroke-miterlimit:4;stroke-dasharray:none;stroke-dashoffset:0;stroke-opacity:1" />
        <path
           sodipodi:nodetypes="cczcc"
           id="path3205"
           d="M 1202.7214,509.36473 L 1202.7214,523.08453 C 1202.7214,523.08453 1201.8887,544.87937 1227.7663,544.87937 C 1253.547,544.87937 1255.044,522.30053 1255.044,522.30053 L 1255.044,509.28634"
           style="fill:#ffe800;fill-opacity:0.14101078;fill-rule:evenodd;stroke:#fff300;stroke-width:6.90888309;stroke-linecap:butt;stroke-linejoin:miter;stroke-miterlimit:4;stroke-dasharray:none;stroke-opacity:1" />
        <path
           style="fill:#595959;fill-opacity:1;fill-rule:nonzero;stroke:#000000;stroke-width:4;stroke-linecap:round;stroke-linejoin:miter;stroke-miterlimit:4;stroke-dasharray:none;stroke-dashoffset:0;stroke-opacity:1"
           d="M 1220.3564,475.83142 C 1220.3564,483.37312 1215.894,489.49393 1210.3957,489.49393 C 1204.8975,489.49393 1200.4351,483.37312 1200.4351,475.83142 C 1200.4351,468.2897 1204.8975,452.54493 1210.3957,452.54493 C 1215.894,452.54493 1220.3564,468.2897 1220.3564,475.83142 z"
           id="path3215"
           sodipodi:nodetypes="csssc" />
        <path
           sodipodi:nodetypes="csssc"
           id="path3235"
           d="M 1256.4038,475.83142 C 1256.4038,483.37312 1251.9414,489.49393 1246.4432,489.49393 C 1240.9449,489.49393 1236.4825,483.37312 1236.4825,475.83142 C 1236.4825,468.2897 1240.9449,452.54493 1246.4432,452.54493 C 1251.9414,452.54493 1256.4038,468.2897 1256.4038,475.83142 z"
           style="fill:#595959;fill-opacity:1;fill-rule:nonzero;stroke:#000000;stroke-width:4;stroke-linecap:round;stroke-linejoin:miter;stroke-miterlimit:4;stroke-dasharray:none;stroke-dashoffset:0;stroke-opacity:1" />
      </g>
      <g
         transform="matrix(0.4197329,0,0,0.4197329,170.81237,156.70572)"
         id="g3562">
        <path
           transform="matrix(1.1912109,0,0,1.1912109,-431.288,-403.11223)"
           d="M 562.85714,454.50504 A 32.857143,20 0 1 1 497.14286,454.50504 A 32.857143,20 0 1 1 562.85714,454.50504 z"
           sodipodi:ry="20"
           sodipodi:rx="32.857143"
           sodipodi:cy="454.50504"
           sodipodi:cx="530"
           id="path3176"
           style="fill:#8e8e8e;fill-opacity:1;fill-rule:nonzero;stroke:#000000;stroke-width:5;stroke-linecap:butt;stroke-linejoin:miter;stroke-miterlimit:4;stroke-dasharray:none;stroke-dashoffset:0;stroke-opacity:1"
           sodipodi:type="arc" />
        <path
           style="fill:#8e8e8e;fill-opacity:1;fill-rule:evenodd;stroke:#000000;stroke-width:5.95605469;stroke-linecap:butt;stroke-linejoin:miter;stroke-miterlimit:4;stroke-dasharray:none;stroke-opacity:1"
           d="M 212.14951,364.10877 C 213.75335,363.87145 212.14951,217.76 212.14951,217.76 L 158.54502,217.76 L 158.54502,293.48698 C 158.54502,293.48698 183.88207,368.29184 212.14951,364.10877 z"
           id="path2396"
           sodipodi:nodetypes="ccccs" />
        <path
           sodipodi:nodetypes="ccccs"
           id="path3168"
           d="M 254.98009,364.10877 C 253.37636,363.87145 254.98009,217.76 254.98009,217.76 L 308.5847,217.76 L 308.5847,293.48698 C 308.5847,293.48698 283.24764,368.29184 254.98009,364.10877 z"
           style="fill:#8e8e8e;fill-opacity:1;fill-rule:evenodd;stroke:#000000;stroke-width:5.95605469;stroke-linecap:butt;stroke-linejoin:miter;stroke-miterlimit:4;stroke-dasharray:none;stroke-opacity:1" />
        <path
           sodipodi:type="arc"
           style="fill:#8e8e8e;fill-opacity:1;fill-rule:nonzero;stroke:#000000;stroke-width:5;stroke-linecap:butt;stroke-linejoin:miter;stroke-miterlimit:4;stroke-dasharray:none;stroke-dashoffset:0;stroke-opacity:1"
           id="path3174"
           sodipodi:cx="530"
           sodipodi:cy="454.50504"
           sodipodi:rx="32.857143"
           sodipodi:ry="20"
           d="M 562.85714,454.50504 A 32.857143,20 0 1 1 497.14286,454.50504 A 32.857143,20 0 1 1 562.85714,454.50504 z"
           transform="matrix(1.1912109,0,0,1.1912109,-334.10572,-403.11223)" />
        <rect
           style="opacity:1;fill:#9b9b9b;fill-opacity:1;fill-rule:nonzero;stroke:#000000;stroke-width:4.21768713;stroke-linecap:round;stroke-linejoin:miter;stroke-miterlimit:4;stroke-dasharray:none;stroke-dashoffset:0;stroke-opacity:1"
           id="rect2790"
           width="84.353745"
           height="84.353745"
           x="192.82312"
           y="157.18475" />
        <g
           id="g3201"
           transform="matrix(1.2264876,0,0,1.2264876,-958.20221,-271.96039)">
          <path
             id="rect3182"
             d="M 986.08003,341.32304 L 986.08003,426.13801 L 958.8832,426.13801 L 958.8832,341.32304 L 986.08003,341.32304 z"
             style="fill:#9b9b9b;fill-opacity:0.97887328;fill-rule:nonzero;stroke:#000000;stroke-width:5.70021105;stroke-linecap:butt;stroke-linejoin:miter;stroke-miterlimit:4;stroke-dasharray:none;stroke-dashoffset:0;stroke-opacity:1" />
          <path
             style="fill:#9b9b9b;fill-opacity:0.97887328;fill-rule:nonzero;stroke:#000000;stroke-width:5.70021105;stroke-linecap:butt;stroke-linejoin:miter;stroke-miterlimit:4;stroke-dasharray:none;stroke-dashoffset:0;stroke-opacity:1"
             d="M 930.07413,370.13211 L 1014.8891,370.13211 L 1014.8891,397.32894 L 930.07413,397.32894 L 930.07413,370.13211 z"
             id="path3199" />
        </g>
        <path
           transform="matrix(1.1912109,0,0,1.1912109,-398.07846,-343.53308)"
           d="M 556.79623,454.50504 A 26.796228,26.796228 0 1 1 503.20377,454.50504 A 26.796228,26.796228 0 1 1 556.79623,454.50504 z"
           sodipodi:ry="26.796228"
           sodipodi:rx="26.796228"
           sodipodi:cy="454.50504"
           sodipodi:cx="530"
           id="path3313"
           style="fill:#000000;fill-opacity:1;fill-rule:nonzero;stroke:#000000;stroke-width:5;stroke-linecap:butt;stroke-linejoin:miter;stroke-miterlimit:4;stroke-dasharray:none;stroke-dashoffset:0;stroke-opacity:1"
           sodipodi:type="arc" />
        <rect
           style="fill:#e7e7e7;fill-opacity:0.97887328;fill-rule:nonzero;stroke:none;stroke-width:0.87728441;stroke-linecap:butt;stroke-linejoin:miter;stroke-miterlimit:4;stroke-dasharray:none;stroke-dashoffset:0;stroke-opacity:1"
           id="rect3178"
           width="36.806168"
           height="36.806168"
           x="215.65625"
           y="179.92674" />
        <path
           style="fill:#696969;fill-opacity:1;fill-rule:evenodd;stroke:#000000;stroke-width:7.14726543;stroke-linecap:butt;stroke-linejoin:miter;stroke-miterlimit:4;stroke-dasharray:none;stroke-opacity:1"
           d="M 252.16168,255.22662 L 290.96824,255.22662 L 290.96824,214.01344 L 273.82123,214.01344 L 273.82123,238.68117 L 252.76337,238.68117 L 252.16168,255.22662 z"
           id="path3307" />
        <path
           id="path3309"
           d="M 216.36341,255.22662 L 177.55686,255.22662 L 177.55686,214.01344 L 194.70387,214.01344 L 194.70387,238.68117 L 215.76173,238.68117 L 216.36341,255.22662 z"
           style="fill:#696969;fill-opacity:1;fill-rule:evenodd;stroke:#000000;stroke-width:7.14726543;stroke-linecap:butt;stroke-linejoin:miter;stroke-miterlimit:4;stroke-dasharray:none;stroke-opacity:1" />
        <path
           id="path2786"
           d="M 252.16168,141.1563 L 290.96824,141.1563 L 290.96824,182.36948 L 273.82123,182.36948 L 273.82123,157.70175 L 252.76337,157.70175 L 252.16168,141.1563 z"
           style="fill:#696969;fill-opacity:1;fill-rule:evenodd;stroke:#000000;stroke-width:7.14726543;stroke-linecap:butt;stroke-linejoin:miter;stroke-miterlimit:4;stroke-dasharray:none;stroke-opacity:1" />
        <path
           style="fill:#696969;fill-opacity:1;fill-rule:evenodd;stroke:#000000;stroke-width:7.14726543;stroke-linecap:butt;stroke-linejoin:miter;stroke-miterlimit:4;stroke-dasharray:none;stroke-opacity:1"
           d="M 216.36341,141.1563 L 177.55686,141.1563 L 177.55686,182.36948 L 194.70387,182.36948 L 194.70387,157.70175 L 215.76173,157.70175 L 216.36341,141.1563 z"
           id="path2788" />
      </g>
    </g>
    <rect
       style="opacity:1;fill:#2c4130;fill-opacity:1;fill-rule:nonzero;stroke:none;stroke-width:0.32908115;stroke-linecap:round;stroke-linejoin:miter;stroke-miterlimit:4;stroke-dasharray:none;stroke-dashoffset:0;stroke-opacity:1"
       id="rect3550"
       width="37.727081"
       height="41.49979"
       x="97.218361"
       y="53.440937" />
    <rect
       y="51.163853"
       x="280.02783"
       height="30.831968"
       width="28.029058"
       id="rect3552"
       style="opacity:1;fill:#2c4130;fill-opacity:1;fill-rule:nonzero;stroke:none;stroke-width:0.32908115;stroke-linecap:round;stroke-linejoin:miter;stroke-miterlimit:4;stroke-dasharray:none;stroke-dashoffset:0;stroke-opacity:1" />
    <rect
       style="opacity:0.1;fill:#ffffff;fill-opacity:1;fill-rule:nonzero;stroke:none;stroke-width:1;stroke-linecap:round;stroke-linejoin:miter;stroke-miterlimit:4;stroke-dasharray:none;stroke-dashoffset:0;stroke-opacity:1"
       id="rect3251"
       width="702.85773"
       height="548.57153"
       x="-28.571463"
       y="-22.857128" />
    <g
       id="g4735"
       style="fill:#ffffff;fill-opacity:0.93309859;stroke:#1d1d1d;stroke-opacity:0.66901401"
       transform="translate(11.428571,-10)">
      <path
         d="M 129.26955,53.597952 C 129.26955,58.248532 127.81626,59.120502 122.29372,57.667212 C 115.0272,55.923242 106.01674,62.608432 106.01674,69.584282 C 106.01674,74.525502 113.86456,82.663982 118.51513,82.663982 C 132.46681,82.373322 135.08276,79.466712 135.08276,63.480422 C 135.08276,54.760602 133.92013,47.784752 132.17615,47.784752 C 130.72286,47.784752 129.26955,50.400702 129.26955,53.597952 z M 125.78163,69.002952 C 126.94427,74.816162 118.51513,78.885402 114.15523,74.525502 C 109.79532,70.165592 113.86456,61.736442 119.67777,62.899092 C 122.58437,63.480422 125.20032,66.096352 125.78163,69.002952 z"
         id="path108"
         style="opacity:1;fill:#ffffff;fill-opacity:0.93309859;stroke:#1d1d1d;stroke-width:2.55383682;stroke-miterlimit:4;stroke-dasharray:none;stroke-opacity:0.66901401" />
      <path
         d="M 13.101256,58.067193 C 3.8001129,67.077673 12.810596,81.029353 25.599636,77.832083 C 31.994159,76.378793 32.575477,76.669453 30.831525,83.645283 C 29.378216,89.458493 29.959533,91.202453 32.575477,90.330483 C 34.90076,89.458493 36.644728,82.482653 37.226045,71.728223 L 38.098021,54.288613 L 27.634264,53.997963 C 22.11172,53.707303 15.426521,55.741923 13.101256,58.067193 z M 28.50624,65.624363 C 29.668874,71.437563 21.23973,75.506803 16.879833,71.146903 C 12.519926,66.787003 16.589172,58.357863 22.402381,59.520503 C 25.308976,60.101823 27.924923,62.717763 28.50624,65.624363 z"
         id="path112"
         style="opacity:1;fill:#ffffff;fill-opacity:0.93309859;stroke:#1d1d1d;stroke-width:2.55383682;stroke-miterlimit:4;stroke-dasharray:none;stroke-opacity:0.66901401" />
      <path
         d="M 46.815092,59.676008 C 37.513966,68.977128 43.90849,78.859568 59.604139,79.731558 L 71.521207,80.312878 L 71.521207,68.105148 C 71.521207,56.188088 71.230546,55.897408 61.3481,55.606748 C 55.534897,55.316088 49.140373,57.350728 46.815092,59.676008 z M 62.220082,67.233158 C 63.382722,73.046368 54.953576,77.115618 50.593675,72.755708 C 46.233772,68.395808 50.303013,59.966668 56.116217,61.129298 C 59.02282,61.710608 61.638761,64.326558 62.220082,67.233158 z"
         id="path124"
         style="opacity:1;fill:#ffffff;fill-opacity:0.93309859;stroke:#1d1d1d;stroke-width:2.55383682;stroke-miterlimit:4;stroke-dasharray:none;stroke-opacity:0.66901401" />
      <path
         d="M 146.67703,56.682879 C 144.06109,59.008159 142.02647,63.077399 142.02647,65.112019 C 142.02647,70.343909 150.16494,78.191739 155.39684,78.191739 C 161.21003,78.191739 160.33805,72.959849 154.52484,71.506539 C 151.32758,70.634569 152.49024,70.053249 157.43144,69.762589 C 163.82598,69.471939 165.27928,68.018629 165.27928,62.496079 C 165.27928,52.322979 154.52484,48.835049 146.67703,56.682879 z M 159.46607,62.205419 C 159.46607,64.530699 156.85012,66.565329 153.65287,66.565329 C 147.83966,66.565329 146.09571,63.368059 149.87429,59.880129 C 153.36221,56.101559 159.46607,57.845529 159.46607,62.205419 z"
         id="path128"
         style="opacity:1;fill:#ffffff;fill-opacity:0.93309859;stroke:#1d1d1d;stroke-width:2.55383682;stroke-miterlimit:4;stroke-dasharray:none;stroke-opacity:0.66901401" />
      <path
         d="M 79.706959,66.758235 C 79.706959,73.734075 81.160259,79.547285 82.613559,79.547285 C 84.357521,79.547285 85.520162,76.350015 85.520162,72.571435 C 85.520162,64.142295 91.914685,58.329085 98.599869,60.945035 C 102.37845,62.398325 103.25043,61.817015 102.37845,58.910405 C 101.50648,56.585125 96.855909,54.841175 90.461385,54.550495 L 79.706959,54.259845 L 79.706959,66.758235 z"
         id="path150"
         style="opacity:1;fill:#ffffff;fill-opacity:0.93309859;stroke:#1d1d1d;stroke-width:2.55383682;stroke-miterlimit:4;stroke-dasharray:none;stroke-opacity:0.66901401" />
      <path
         d="M 176.6103,65.038249 C 176.6103,72.014079 178.06361,77.827289 179.5169,77.827289 C 181.26086,77.827289 182.4235,74.630029 182.4235,70.851449 C 182.4235,67.072859 184.45813,62.422309 186.78341,60.387669 C 193.46859,54.865139 199.86312,59.225039 199.86312,69.107479 C 199.86312,73.758049 201.31643,77.827289 202.76972,77.827289 C 206.25763,77.827289 206.5483,63.294279 203.06038,57.771739 C 201.60708,55.446449 194.92189,53.121179 188.52736,52.830499 L 176.6103,52.249189 L 176.6103,65.038249 z"
         id="path200"
         style="opacity:1;fill:#ffffff;fill-opacity:0.93309859;stroke:#1d1d1d;stroke-width:2.55383682;stroke-miterlimit:4;stroke-dasharray:none;stroke-opacity:0.66901401" />
    </g>
    <g
       id="g4743"
       style="fill:#ffffff;fill-opacity:0.93309859;stroke:#1d1d1d;stroke-opacity:0.66901401"
       transform="translate(11.428571,-7.1428571)">
      <path
         d="M 283.18526,49.995675 C 281.15066,52.030315 279.69735,54.936915 279.69735,56.971515 C 279.69735,59.006145 277.95339,61.331435 276.20943,62.203405 C 273.30282,63.656715 273.30282,64.238025 276.20943,65.691325 C 277.95339,66.563315 279.69735,71.213875 279.69735,75.864445 C 279.69735,80.514995 281.15066,84.293595 282.60394,84.293595 C 285.21989,84.293595 286.96386,72.085855 286.09186,60.168785 C 285.80121,56.971515 287.83584,54.064915 291.32375,53.192945 C 294.52102,52.320975 297.13695,50.576995 297.13695,49.123705 C 297.13695,45.345115 287.25452,45.926435 283.18526,49.995675 z"
         id="path110"
         style="opacity:1;fill:#ffffff;fill-opacity:0.93309859;stroke:#1d1d1d;stroke-width:2.55383682;stroke-miterlimit:4;stroke-dasharray:none;stroke-opacity:0.66901401" />
      <path
         d="M 246.60361,62.293499 C 243.98766,64.618769 241.95304,68.688019 241.95304,70.722649 C 241.95304,75.954519 249.80087,83.802349 255.03275,83.802349 C 260.26462,83.802349 268.11246,75.954519 268.11246,70.722649 C 268.11246,65.490769 260.26462,57.642929 255.03275,57.642929 C 252.99813,57.642929 248.92889,59.677559 246.60361,62.293499 z M 261.71793,70.141309 C 262.88057,75.954519 254.45142,80.023769 250.09153,75.663859 C 245.73162,71.303959 249.80087,62.874819 255.61407,64.037449 C 258.52067,64.618769 261.13662,67.234709 261.71793,70.141309 z"
         id="path202"
         style="opacity:1;fill:#ffffff;fill-opacity:0.93309859;stroke:#1d1d1d;stroke-width:2.55383682;stroke-miterlimit:4;stroke-dasharray:none;stroke-opacity:0.66901401" />
    </g>
    <g
       id="g4747"
       style="fill:#ffffff;fill-opacity:0.93309858999999995;stroke:#474747;stroke-opacity:0.66901404"
       transform="translate(2.8571429,7.1428571)">
      <path
         d="M 22.089697,136.93163 C 19.473755,139.25691 17.439145,143.32614 17.439145,145.36077 C 17.439145,149.72069 25.286958,158.44048 29.065552,158.44048 C 33.716104,158.44048 40.691958,154.95255 40.691958,152.62729 C 40.691958,151.17397 37.204039,150.302 32.844128,150.59265 C 26.449608,151.17397 24.705641,150.01134 24.705641,145.36077 C 24.705641,140.71022 26.449608,139.54757 32.844128,140.12889 C 41.273275,140.71022 43.598559,136.93163 36.041389,134.02502 C 29.065552,131.40908 27.030925,131.69974 22.089697,136.93163 z"
         id="path126"
         style="opacity:1;fill:#ffffff;fill-opacity:0.93309858999999995;stroke:#474747;stroke-width:2.55383681999999990;stroke-miterlimit:4;stroke-dasharray:none;stroke-opacity:0.66901404" />
      <path
         d="M 134.1161,138.27364 C 134.1161,147.2841 140.51062,156.0039 147.19582,156.0039 C 153.881,156.0039 160.27552,147.2841 160.27552,138.27364 C 160.27552,126.64723 155.04363,127.51923 153.881,139.14561 C 153.29968,146.41213 151.55571,148.73741 147.19582,148.73741 C 142.83591,148.73741 141.09195,146.41213 140.51062,139.14561 C 139.34799,127.51923 134.1161,126.64723 134.1161,138.27364 z"
         id="path156"
         style="opacity:1;fill:#ffffff;fill-opacity:0.93309858999999995;stroke:#474747;stroke-width:2.55383681999999990;stroke-miterlimit:4;stroke-dasharray:none;stroke-opacity:0.66901404" />
      <path
         d="M 85.357781,136.93615 C 85.357781,145.65594 86.811094,153.79443 88.555045,154.66643 C 92.914956,157.57303 92.914956,156.70103 91.752309,137.80813 C 90.299022,116.58994 85.357781,116.00861 85.357781,136.93615 z"
         id="path186"
         style="opacity:1;fill:#ffffff;fill-opacity:0.93309858999999995;stroke:#474747;stroke-width:2.55383681999999990;stroke-miterlimit:4;stroke-dasharray:none;stroke-opacity:0.66901404" />
      <path
         style="opacity:1;fill:#ffffff;fill-opacity:0.93309858999999995;stroke:#474747;stroke-width:2.55383681999999990;stroke-miterlimit:4;stroke-dasharray:none;stroke-opacity:0.66901404"
         id="path2732"
         d="M 51.950358,135.80743 C 49.334414,138.1327 47.299788,142.20195 47.299788,144.23657 C 47.299788,149.46844 55.14762,157.31627 60.379499,157.31627 C 65.611379,157.31627 73.459206,149.46844 73.459206,144.23657 C 73.459206,139.00469 65.611379,131.15685 60.379499,131.15685 C 58.344882,131.15685 54.275637,133.19148 51.950358,135.80743 z M 67.064679,143.65524 C 68.227313,149.46844 59.798169,153.53771 55.438272,149.17779 C 51.078364,144.81789 55.14762,136.38875 60.960816,137.55138 C 63.867428,138.1327 66.483361,140.74865 67.064679,143.65524 z" />
      <path
         d="M 106.01308,135.51169 C 103.39714,137.83696 101.36251,141.90622 101.36251,143.94085 C 101.36251,149.17272 109.21035,157.02054 114.44223,157.02054 C 119.67409,157.02054 127.52193,149.17272 127.52193,143.94085 C 127.52193,138.70895 119.67409,130.86113 114.44223,130.86113 C 112.4076,130.86113 108.33836,132.89574 106.01308,135.51169 z M 121.1274,143.3595 C 122.29004,149.17272 113.8609,153.24195 109.501,148.88205 C 105.14109,144.52216 109.21035,136.09301 115.02354,137.25564 C 117.93014,137.83696 120.54609,140.45291 121.1274,143.3595 z"
         id="path2734"
         style="opacity:1;fill:#ffffff;fill-opacity:0.93309858999999995;stroke:#474747;stroke-width:2.55383681999999990;stroke-miterlimit:4;stroke-dasharray:none;stroke-opacity:0.66901404" />
      <path
         style="opacity:1;fill:#ffffff;fill-opacity:0.93309858999999995;stroke:#474747;stroke-width:2.55383681999999990;stroke-miterlimit:4;stroke-dasharray:none;stroke-opacity:0.66901404"
         id="path2736"
         d="M 167.4986,141.869 C 167.4986,148.84485 168.95191,154.65805 170.4052,154.65805 C 172.14916,154.65805 173.3118,151.46078 173.3118,147.6822 C 173.3118,139.25305 179.70632,133.43986 186.39152,136.0558 C 190.1701,137.50909 191.04207,136.92778 190.1701,134.02117 C 189.29812,131.69588 184.64755,129.95193 178.25303,129.66127 L 167.4986,129.3706 L 167.4986,141.869 z" />
      <path
         style="opacity:1;fill:#ffffff;fill-opacity:0.93309858999999995;stroke:#474747;stroke-width:2.55383681999999990;stroke-miterlimit:4;stroke-dasharray:none;stroke-opacity:0.66901404"
         id="path2738"
         d="M 200.0212,136.12459 C 197.40526,138.44988 195.37063,142.51912 195.37063,144.55374 C 195.37063,149.78563 203.50912,157.63346 208.741,157.63346 C 214.55422,157.63346 213.68222,152.40156 207.86901,150.94827 C 204.67177,150.07628 205.83441,149.49496 210.77563,149.20431 C 217.17015,148.91364 218.62345,147.46035 218.62345,141.9378 C 218.62345,131.7647 207.86901,128.27677 200.0212,136.12459 z M 212.81024,141.64714 C 212.81024,143.97242 210.1943,146.00705 206.99704,146.00705 C 201.18383,146.00705 199.43988,142.80977 203.21846,139.32186 C 206.70638,135.54327 212.81024,137.28724 212.81024,141.64714 z" />
      <path
         style="opacity:1;fill:#ffffff;fill-opacity:0.93309858999999995;stroke:#474747;stroke-width:2.55383681999999990;stroke-miterlimit:4;stroke-dasharray:none;stroke-opacity:0.66901404"
         id="path2740"
         d="M 250.4873,129.15155 C 250.4873,133.80211 249.03399,134.67409 243.51145,133.2208 C 236.24495,131.47683 227.23448,138.16203 227.23448,145.13787 C 227.23448,150.0791 235.0823,158.21756 239.73286,158.21756 C 253.68454,157.92691 256.30049,155.02031 256.30049,139.03401 C 256.30049,130.3142 255.13785,123.33834 253.39389,123.33834 C 251.94059,123.33834 250.4873,125.95429 250.4873,129.15155 z M 246.99936,144.55655 C 248.162,150.36975 239.73286,154.43899 235.37296,150.0791 C 231.01305,145.71919 235.0823,137.29004 240.8955,138.45269 C 243.80212,139.03401 246.41805,141.64994 246.99936,144.55655 z" />
    </g>
    <g
       id="g4757"
       style="fill:#ffffff;fill-opacity:0.93309859;stroke:#1d1d1d;stroke-opacity:0.66901401"
       transform="translate(-5.7142857,17.142857)">
      <path
         d="M 301.23559,139.3024 C 301.23559,148.02221 302.6889,156.1607 304.43285,157.03266 C 308.79277,159.93927 308.79277,159.0673 307.63011,140.17438 C 306.17682,118.95618 301.23559,118.37486 301.23559,139.3024 z"
         id="path118"
         style="opacity:1;fill:#ffffff;fill-opacity:0.93309859;stroke:#1d1d1d;stroke-width:2.55383682;stroke-miterlimit:4;stroke-dasharray:none;stroke-opacity:0.66901401" />
      <g
         style="opacity:1;fill:#ffffff;fill-opacity:0.93309859;stroke:#1d1d1d;stroke-width:1.60000002;stroke-miterlimit:4;stroke-dasharray:none;stroke-opacity:0.66901401"
         transform="matrix(1.5961482,0,0,1.5961482,-90.643501,19.654866)"
         id="g2742">
        <path
           style="fill:#ffffff;fill-opacity:0.93309859;stroke:#1d1d1d;stroke-width:1.60000002;stroke-miterlimit:4;stroke-dasharray:none;stroke-opacity:0.66901401"
           id="path120"
           d="M 259.7392,70.20817 C 259.7392,71.118675 260.64971,72.02918 261.56021,72.02918 C 262.65282,72.02918 263.38122,71.118675 263.38122,70.20817 C 263.38122,69.115564 262.65282,68.38716 261.56021,68.38716 C 260.64971,68.38716 259.7392,69.115564 259.7392,70.20817 z" />
        <path
           style="fill:#ffffff;fill-opacity:0.93309859;stroke:#1d1d1d;stroke-width:1.60000002;stroke-miterlimit:4;stroke-dasharray:none;stroke-opacity:0.66901401"
           id="path138"
           d="M 259.7392,81.13423 C 259.7392,85.140452 260.64971,88.41827 261.56021,88.41827 C 262.65282,88.41827 263.38122,85.140452 263.38122,81.13423 C 263.38122,77.128008 262.65282,73.85019 261.56021,73.85019 C 260.64971,73.85019 259.7392,77.128008 259.7392,81.13423 z" />
      </g>
      <path
         d="M 419.06404,145.65103 C 419.06404,161.92799 426.33055,169.48517 437.66629,165.12525 C 445.22345,162.21866 442.89816,158.44007 434.46902,159.02139 C 428.07449,159.60272 426.0399,158.14941 425.45855,152.91753 C 424.58658,147.97631 426.0399,146.523 430.39977,146.523 C 433.88771,146.523 436.50364,145.06972 436.50364,143.61641 C 436.50364,141.87244 434.17836,140.7098 431.27176,140.7098 C 428.36516,140.7098 424.58658,139.25649 422.55195,137.22188 C 419.93601,134.60594 419.06404,136.34991 419.06404,145.65103 z"
         id="path146"
         style="opacity:1;fill:#ffffff;fill-opacity:0.93309859;stroke:#1d1d1d;stroke-width:2.55383682;stroke-miterlimit:4;stroke-dasharray:none;stroke-opacity:0.66901401" />
      <path
         d="M 449.7206,143.35324 C 442.74476,150.03842 444.19805,153.23568 453.78983,153.23568 C 458.73105,153.23568 462.50964,154.689 462.50964,156.43295 C 462.50964,158.46758 459.60304,159.04889 455.24315,157.88626 C 447.39532,155.85163 445.07002,160.21152 452.62719,163.11813 C 459.60304,165.73407 461.63766,165.44341 466.57888,160.21152 C 473.55473,153.52635 472.10141,150.32909 462.50964,150.32909 C 457.85909,150.32909 453.78983,148.87579 453.78983,147.13182 C 453.78983,145.09719 456.69643,144.51588 461.05634,145.67851 C 468.90418,147.71315 471.22944,143.35324 463.67229,140.44664 C 456.69643,137.8307 454.66183,138.12136 449.7206,143.35324 z"
         id="path152"
         style="opacity:1;fill:#ffffff;fill-opacity:0.93309859;stroke:#1d1d1d;stroke-width:2.55383682;stroke-miterlimit:4;stroke-dasharray:none;stroke-opacity:0.66901401" />
      <path
         d="M 384.3778,145.33066 C 384.3778,162.18895 388.7377,169.74611 390.77232,156.08509 C 391.35365,152.01584 393.67892,149.69057 397.45752,149.69057 C 401.23609,149.69057 403.56138,152.01584 404.14269,156.08509 C 405.30533,164.22357 410.53722,165.09556 410.53722,157.24772 C 410.53722,149.39989 402.10806,141.55208 395.71354,143.29603 C 391.35365,144.45868 390.19101,143.00538 390.19101,136.3202 C 390.19101,131.66962 389.02837,127.89105 387.2844,127.89105 C 385.54046,127.89105 384.3778,135.73889 384.3778,145.33066 z"
         id="path182"
         style="opacity:1;fill:#ffffff;fill-opacity:0.93309859;stroke:#1d1d1d;stroke-width:2.55383682;stroke-miterlimit:4;stroke-dasharray:none;stroke-opacity:0.66901401" />
      <path
         style="opacity:1;fill:#ffffff;fill-opacity:0.93309859;stroke:#1d1d1d;stroke-width:2.55383682;stroke-miterlimit:4;stroke-dasharray:none;stroke-opacity:0.66901401"
         id="path2746"
         d="M 347.30016,138.91713 C 337.99903,147.92762 347.0095,161.87929 359.79854,158.68203 C 366.19307,157.22874 366.77438,157.5194 365.03044,164.49524 C 363.57712,170.30844 364.15844,172.0524 366.77438,171.18044 C 369.09966,170.30844 370.84363,163.33261 371.42495,152.57817 L 372.29693,135.13856 L 361.83317,134.8479 C 356.31062,134.55723 349.62543,136.59186 347.30016,138.91713 z M 362.70514,146.47431 C 363.86778,152.28752 355.43863,156.35675 351.07873,151.99685 C 346.71882,147.63694 350.78808,139.20781 356.60128,140.37045 C 359.50789,140.95176 362.12382,143.56771 362.70514,146.47431 z" />
    </g>
    <g
       id="g4767"
       style="stroke:#1d1d1d;stroke-opacity:0.66901403999999998;fill:#ffffff;fill-opacity:0.93309861">
      <path
         d="M 188.31565,435.1064 C 185.38829,447.41686 184.13371,459.00318 184.97011,461.17561 C 186.2247,462.62388 189.57022,454.65828 192.49762,442.34785 C 195.42497,430.0374 196.67954,418.45106 195.84316,416.27864 C 194.58858,414.83037 191.24303,422.79595 188.31565,435.1064 z"
         id="path16"
         style="opacity:1;fill:#ffffff;fill-opacity:0.93309859;stroke:#1d1d1d;stroke-width:2.8800056;stroke-miterlimit:4;stroke-dasharray:none;stroke-opacity:0.66901401" />
      <path
         d="M 435.17856,432.74517 C 432.56261,438.2677 435.17856,443.49958 440.41043,443.49958 C 447.67693,443.49958 448.54892,432.74517 441.28242,431.58252 C 438.37582,431.29186 435.75987,431.87318 435.17856,432.74517 z"
         id="path18"
         style="opacity:1;fill:#ffffff;fill-opacity:0.93309861;stroke:#1d1d1d;stroke-width:2.55383681999999990;stroke-miterlimit:4;stroke-dasharray:none;stroke-opacity:0.66901403999999998" />
      <g
         style="opacity:1;fill:#ffffff;fill-opacity:0.93309861;stroke:#1d1d1d;stroke-width:1.60000001999999997;stroke-miterlimit:4;stroke-dasharray:none;stroke-opacity:0.66901403999999998"
         transform="matrix(1.5961482,0,0,1.5961482,130.19069,314.65333)"
         id="g2752">
        <path
           d="M 23.463752,69.835852 C 23.463752,71.29266 24.738459,72.749468 26.195267,73.477872 C 28.016277,74.206276 28.926782,73.295771 28.926782,70.928458 C 28.926782,68.925347 27.652075,67.286438 26.195267,67.286438 C 24.738459,67.286438 23.463752,68.379044 23.463752,69.835852 z"
           id="path2748"
           style="fill:#ffffff;fill-opacity:0.93309861;stroke:#1d1d1d;stroke-width:1.60000001999999997;stroke-miterlimit:4;stroke-dasharray:none;stroke-opacity:0.66901403999999998" />
        <path
           d="M 23.446284,81.206757 C 23.446284,83.209868 24.720991,84.848777 26.177799,84.848777 C 27.634607,84.848777 28.909314,83.756171 28.909314,82.299363 C 28.909314,80.842555 27.634607,79.385747 26.177799,78.657343 C 24.356789,77.928939 23.446284,78.839444 23.446284,81.206757 z"
           id="path2750"
           style="fill:#ffffff;fill-opacity:0.93309861;stroke:#1d1d1d;stroke-width:1.60000001999999997;stroke-miterlimit:4;stroke-dasharray:none;stroke-opacity:0.66901403999999998" />
      </g>
      <path
         style="opacity:1;fill:#ffffff;fill-opacity:0.93309861;stroke:#1d1d1d;stroke-width:2.55383681999999990;stroke-miterlimit:4;stroke-dasharray:none;stroke-opacity:0.66901403999999998"
         id="path2756"
         d="M 38.333245,437.42303 C 38.333245,454.28132 42.693156,461.83847 44.727759,448.17746 C 45.309089,444.10821 47.634358,441.78293 51.412951,441.78293 C 55.191531,441.78293 57.516813,444.10821 58.09813,448.17746 C 59.260777,456.31594 64.492657,457.18793 64.492657,449.34009 C 64.492657,441.49227 56.063514,433.64446 49.668987,435.38841 C 45.309089,436.55105 44.146442,435.09774 44.146442,428.41256 C 44.146442,423.762 42.983808,419.98342 41.239844,419.98342 C 39.495892,419.98342 38.333245,427.83125 38.333245,437.42303 z" />
      <path
         style="opacity:1;fill:#ffffff;fill-opacity:0.93309861;stroke:#1d1d1d;stroke-width:2.55383681999999990;stroke-miterlimit:4;stroke-dasharray:none;stroke-opacity:0.66901403999999998"
         id="path2758"
         d="M 71.500425,432.74341 C 71.500425,449.02037 78.766934,456.57754 90.102688,452.21762 C 97.659837,449.31103 95.334555,445.53245 86.905412,446.11377 C 80.510885,446.6951 78.476281,445.2418 77.894939,440.00991 C 77.022969,435.06869 78.476281,433.61539 82.836166,433.61539 C 86.324095,433.61539 88.940028,432.16209 88.940028,430.70878 C 88.940028,428.96482 86.614747,427.80219 83.708148,427.80219 C 80.80155,427.80219 77.022969,426.34887 74.98834,424.31427 C 72.372394,421.69832 71.500425,423.44228 71.500425,432.74341 z" />
      <path
         d="M 99.926529,432.02912 C 99.926529,448.30608 107.19304,455.86325 118.52878,451.50333 C 126.08594,448.59674 123.76066,444.81816 115.3315,445.39948 C 108.93699,445.98081 106.90237,444.52751 106.32104,439.29562 C 105.44907,434.3544 106.90237,432.9011 111.26227,432.9011 C 114.75018,432.9011 117.36613,431.4478 117.36613,429.99449 C 117.36613,428.25053 115.04085,427.0879 112.13425,427.0879 C 109.22764,427.0879 105.44907,425.63458 103.41445,423.59998 C 100.7985,420.98403 99.926529,422.72799 99.926529,432.02912 z"
         id="path2760"
         style="opacity:1;fill:#ffffff;fill-opacity:0.93309861;stroke:#1d1d1d;stroke-width:2.55383681999999990;stroke-miterlimit:4;stroke-dasharray:none;stroke-opacity:0.66901403999999998" />
      <path
         style="opacity:1;fill:#ffffff;fill-opacity:0.93309859;stroke:#1d1d1d;stroke-width:2.55383682;stroke-miterlimit:4;stroke-dasharray:none;stroke-opacity:0.66901401"
         id="path2762"
         d="M 137.14794,424.43267 C 131.04407,425.5953 130.46276,427.33926 130.46276,441.58162 C 130.46276,450.30143 131.91604,457.27726 133.36935,457.27726 C 135.11331,457.27726 136.27596,454.66132 136.27596,451.46406 C 136.27596,446.81348 137.72925,445.94152 143.2518,447.39481 C 147.61171,448.26679 151.68094,447.10416 154.87821,444.19757 C 160.69141,438.09368 160.69141,432.86181 154.87821,427.04861 C 150.22766,422.39803 148.77435,422.10738 137.14794,424.43267 z M 153.13425,434.89642 C 154.29689,440.70962 145.86774,444.77888 141.50785,440.41897 C 137.14794,436.05907 141.21717,427.62993 147.03038,428.79256 C 149.93698,429.37388 152.55292,431.98983 153.13425,434.89642 z" />
      <path
         style="opacity:1;fill:#ffffff;fill-opacity:0.93309859;stroke:#1d1d1d;stroke-width:2.8800056;stroke-miterlimit:4;stroke-dasharray:none;stroke-opacity:0.66901401"
         id="path2768"
         d="M 204.82498,433.30899 C 201.89761,445.61943 200.64302,457.20575 201.47944,459.37818 C 202.73402,460.82645 206.07955,452.86086 209.00693,440.55044 C 211.9343,428.23997 213.18886,416.65363 212.35248,414.48121 C 211.09791,413.03294 207.75234,420.99852 204.82498,433.30899 z" />
      <path
         style="opacity:1;fill:#ffffff;fill-opacity:0.93309861;stroke:#1d1d1d;stroke-width:2.55383681999999990;stroke-miterlimit:4;stroke-dasharray:none;stroke-opacity:0.66901403999999998"
         id="path2770"
         d="M 344.70417,419.83368 C 344.70417,424.48425 343.25087,425.35623 337.72833,423.90294 C 330.46182,422.15896 321.45136,428.84415 321.45136,435.82 C 321.45136,440.76123 329.29919,448.89969 333.94974,448.89969 C 347.90144,448.60904 350.51737,445.70244 350.51737,429.71614 C 350.51737,420.99633 349.35473,414.02047 347.61077,414.02047 C 346.15749,414.02047 344.70417,416.63642 344.70417,419.83368 z M 341.21626,435.23868 C 342.37889,441.05189 333.94974,445.12113 329.58985,440.76123 C 325.22994,436.40131 329.29919,427.97217 335.1124,429.13482 C 338.01899,429.71614 340.63494,432.33209 341.21626,435.23868 z" />
      <path
         style="opacity:1;fill:#ffffff;fill-opacity:0.93309861;stroke:#1d1d1d;stroke-width:2.55383681999999990;stroke-miterlimit:4;stroke-dasharray:none;stroke-opacity:0.66901403999999998"
         id="path2772"
         d="M 222.10731,427.16005 C 212.80618,436.17054 221.81666,450.12221 234.6057,446.92495 C 241.00021,445.47166 241.58153,445.76232 239.83758,452.73815 C 238.38428,458.55136 238.9656,460.29532 241.58153,459.42336 C 243.90682,458.55136 245.65079,451.57552 246.23211,440.82109 L 247.10408,423.38147 L 236.64033,423.09082 C 231.11778,422.80015 224.43257,424.83479 222.10731,427.16005 z M 237.51229,434.71723 C 238.67494,440.53043 230.24579,444.59966 225.8859,440.23977 C 221.52598,435.87986 225.59523,427.45073 231.40843,428.61337 C 234.31504,429.19468 236.93098,431.81063 237.51229,434.71723 z" />
      <path
         style="opacity:1;fill:#ffffff;fill-opacity:0.93309861;stroke:#1d1d1d;stroke-width:2.55383681999999990;stroke-miterlimit:4;stroke-dasharray:none;stroke-opacity:0.66901403999999998"
         id="path2774"
         d="M 258.67829,426.62602 C 249.37716,435.92714 255.77168,445.80958 271.46734,446.68157 L 283.3844,447.26289 L 283.3844,435.05516 C 283.3844,423.1381 283.09375,422.84742 273.21129,422.55676 C 267.39808,422.26611 261.00357,424.30073 258.67829,426.62602 z M 274.08329,434.18317 C 275.24592,439.99638 266.81676,444.06562 262.45688,439.70571 C 258.09697,435.34583 262.16621,426.91667 267.9794,428.0793 C 270.88601,428.66062 273.50194,431.27656 274.08329,434.18317 z" />
      <path
         style="opacity:1;fill:#ffffff;fill-opacity:0.93309861;stroke:#1d1d1d;stroke-width:2.55383681999999990;stroke-miterlimit:4;stroke-dasharray:none;stroke-opacity:0.66901403999999998"
         id="path2776"
         d="M 362.82595,423.63289 C 360.21,425.95816 358.17537,430.0274 358.17537,432.06203 C 358.17537,437.29392 366.31386,445.14175 371.54576,445.14175 C 377.35895,445.14175 376.48696,439.90985 370.67376,438.45655 C 367.47649,437.58457 368.63914,437.00326 373.58035,436.7126 C 379.9749,436.42194 381.42819,434.96863 381.42819,429.44609 C 381.42819,419.27299 370.67376,415.78505 362.82595,423.63289 z M 375.61499,429.15542 C 375.61499,431.48071 372.99904,433.51534 369.80178,433.51534 C 363.98858,433.51534 362.24462,430.31806 366.02321,426.83014 C 369.51113,423.05156 375.61499,424.79553 375.61499,429.15542 z" />
      <path
         style="opacity:1;fill:#ffffff;fill-opacity:0.93309861;stroke:#1d1d1d;stroke-width:2.55383681999999990;stroke-miterlimit:4;stroke-dasharray:none;stroke-opacity:0.66901403999999998"
         id="path2778"
         d="M 292.28445,433.70824 C 292.28445,440.68409 293.73775,446.49728 295.19105,446.49728 C 296.93502,446.49728 298.09765,443.30004 298.09765,439.52145 C 298.09765,431.09231 304.49218,425.2791 311.17737,427.89505 C 314.95594,429.34834 315.82792,428.76701 314.95594,425.86042 C 314.08396,423.53514 309.4334,421.79118 303.03888,421.5005 L 292.28445,421.20984 L 292.28445,433.70824 z" />
      <path
         style="opacity:1;fill:#ffffff;fill-opacity:0.93309861;stroke:#1d1d1d;stroke-width:2.55383681999999990;stroke-miterlimit:4;stroke-dasharray:none;stroke-opacity:0.66901403999999998"
         id="path2780"
         d="M 391.33065,431.98826 C 391.33065,438.9641 392.78395,444.7773 394.23725,444.7773 C 395.98121,444.7773 397.14385,441.58003 397.14385,437.80147 C 397.14385,434.02285 399.17848,429.3723 401.50376,427.33769 C 408.18893,421.81514 414.58346,426.17504 414.58346,436.05749 C 414.58346,440.70806 416.03676,444.7773 417.49006,444.7773 C 420.97797,444.7773 421.26864,430.24429 417.78072,424.72175 C 416.32742,422.39646 409.64223,420.07118 403.24771,419.78052 L 391.33065,419.1992 L 391.33065,431.98826 z" />
      <path
         style="opacity:1;fill:#ffffff;fill-opacity:0.93309861;stroke:#1d1d1d;stroke-width:2.55383681999999990;stroke-miterlimit:4;stroke-dasharray:none;stroke-opacity:0.66901403999999998"
         id="path2782"
         d="M 459.11556,424.43579 C 452.13972,431.12097 453.59302,434.31823 463.1848,434.31823 C 468.12602,434.31823 471.9046,435.77154 471.9046,437.51549 C 471.9046,439.55013 468.99799,440.13143 464.63811,438.96881 C 456.79027,436.93418 454.46498,441.29408 462.02216,444.20068 C 468.99799,446.81662 471.03262,446.52596 475.97384,441.29408 C 482.9497,434.60888 481.49638,431.41163 471.9046,431.41163 C 467.25404,431.41163 463.1848,429.95833 463.1848,428.21437 C 463.1848,426.17974 466.09139,425.59843 470.45131,426.76106 C 478.29913,428.79569 480.62439,424.43579 473.06725,421.52919 C 466.09139,418.91325 464.05679,419.20391 459.11556,424.43579 z" />
      <path
         style="opacity:1;fill:#ffffff;fill-opacity:0.93309861;stroke:#1d1d1d;stroke-width:2.55383681999999990;stroke-miterlimit:4;stroke-dasharray:none;stroke-opacity:0.66901403999999998"
         id="path2784"
         d="M 495.69724,413.33189 C 493.66263,415.36652 492.20932,418.27312 492.20932,420.30772 C 492.20932,422.34236 490.46537,424.66763 488.72141,425.53961 C 485.81479,426.99293 485.81479,427.57423 488.72141,429.02753 C 490.46537,429.89953 492.20932,434.55008 492.20932,439.20065 C 492.20932,443.8512 493.66263,447.62979 495.11593,447.62979 C 497.73187,447.62979 499.47583,435.42206 498.60384,423.50499 C 498.31318,420.30772 500.34781,417.40113 503.83573,416.52916 C 507.03299,415.65718 509.64893,413.91321 509.64893,412.45991 C 509.64893,408.68132 499.7665,409.26264 495.69724,413.33189 z" />
      <path
         style="opacity:1;fill:#ffffff;fill-opacity:0.93309861;stroke:#1d1d1d;stroke-width:2.55383681999999990;stroke-miterlimit:4;stroke-dasharray:none;stroke-opacity:0.66901403999999998"
         id="path4634"
         d="M 514.42587,435.60231 C 511.80993,441.12484 514.42587,446.35672 519.65774,446.35672 C 526.92425,446.35672 527.79623,435.60231 520.52974,434.43966 C 517.62312,434.149 515.00719,434.73032 514.42587,435.60231 z" />
      <path
         d="M 539.78962,433.41683 C 539.78962,440.39267 541.24293,446.20587 542.69622,446.20587 C 544.44018,446.20587 545.60281,443.0086 545.60281,439.23004 C 545.60281,435.45142 547.63744,430.80087 549.96273,428.76626 C 556.64791,423.24371 563.04243,427.60361 563.04243,437.48606 C 563.04243,442.13663 564.49574,446.20587 565.94903,446.20587 C 569.43695,446.20587 569.72761,431.67286 566.23969,426.15032 C 564.7864,423.82503 558.1012,421.49975 551.70668,421.20909 L 539.78962,420.62777 L 539.78962,433.41683 z"
         id="path4636"
         style="opacity:1;fill:#ffffff;fill-opacity:0.93309861;stroke:#1d1d1d;stroke-width:2.55383681999999990;stroke-miterlimit:4;stroke-dasharray:none;stroke-opacity:0.66901403999999998" />
      <path
         d="M 579.64656,425.06147 C 577.03061,427.38674 574.99598,431.45598 574.99598,433.49061 C 574.99598,438.7225 583.13447,446.57033 588.36637,446.57033 C 594.17957,446.57033 593.30757,441.33843 587.49437,439.88513 C 584.29711,439.01315 585.45976,438.43184 590.40097,438.14118 C 596.79551,437.85052 598.2488,436.39721 598.2488,430.87467 C 598.2488,420.70157 587.49437,417.21363 579.64656,425.06147 z M 592.4356,430.584 C 592.4356,432.90929 589.81965,434.94392 586.62239,434.94392 C 580.8092,434.94392 579.06524,431.74664 582.84382,428.25872 C 586.33174,424.48014 592.4356,426.22411 592.4356,430.584 z"
         id="path2790"
         style="opacity:1;fill:#ffffff;fill-opacity:0.93309861;stroke:#1d1d1d;stroke-width:2.55383681999999990;stroke-miterlimit:4;stroke-dasharray:none;stroke-opacity:0.66901403999999998" />
      <path
         style="opacity:1;fill:#ffffff;fill-opacity:0.93309861;stroke:#1d1d1d;stroke-width:2.55383681999999990;stroke-miterlimit:4;stroke-dasharray:none;stroke-opacity:0.66901403999999998"
         id="path2792"
         d="M 607.24609,427.56244 C 607.24609,443.8394 614.5126,451.39657 625.84834,447.03666 C 633.40551,444.13005 631.08022,440.35148 622.65107,440.9328 C 616.25655,441.51413 614.22194,440.06082 613.64061,434.82893 C 612.76863,429.88772 614.22194,428.43441 618.58183,428.43441 C 622.06975,428.43441 624.68569,426.98112 624.68569,425.52781 C 624.68569,423.78385 622.36041,422.62121 619.45381,422.62121 C 616.5472,422.62121 612.76863,421.1679 610.73401,419.1333 C 608.11806,416.51735 607.24609,418.26132 607.24609,427.56244 z" />
    </g>
    <g
       style="opacity:0.81355932"
       id="g4791"
       transform="matrix(3.2143209,5.2190007,-5.2190007,3.2143209,573.4448,-44.34909)">
      <path
         sodipodi:nodetypes="ccccc"
         id="path4793"
         d="M 12.633648,7.3469356 L 14.718215,0.66008103 L 18.45419,6.5212322 L 16.775708,16.362006 L 12.633648,7.3469356 z"
         style="opacity:1;fill:#ae86ae;fill-opacity:1;fill-rule:evenodd;stroke:#000000;stroke-width:0.12102496;stroke-linecap:butt;stroke-linejoin:miter;stroke-miterlimit:4;stroke-dasharray:none;stroke-opacity:1" />
      <path
         sodipodi:nodetypes="ccccc"
         id="path4795"
         d="M 7.435769,12.40945 L 0.77598609,14.27744 L 6.3258049,17.823911 L 16.477913,16.849307 L 7.435769,12.40945 z"
         style="fill:#ae86ae;fill-opacity:1;fill-rule:evenodd;stroke:#000000;stroke-width:0.12102496;stroke-linecap:butt;stroke-linejoin:miter;stroke-miterlimit:4;stroke-dasharray:none;stroke-opacity:1" />
      <path
         sodipodi:nodetypes="ccccc"
         id="path4797"
         d="M 14.799431,27.461643 L 9.5203354,31.360055 L 9.8452025,24.321259 L 16.775708,17.174175 L 14.799431,27.461643 z"
         style="fill:#ae86ae;fill-opacity:1;fill-rule:evenodd;stroke:#000000;stroke-width:0.12102496;stroke-linecap:butt;stroke-linejoin:miter;stroke-miterlimit:4;stroke-dasharray:none;stroke-opacity:1" />
      <path
         sodipodi:nodetypes="ccccc"
         id="path4799"
         d="M 28.200214,28.517462 L 26.359298,21.911825 L 17.208865,17.147101 L 21.811154,26.378751 L 28.200214,28.517462 z"
         style="fill:#ae86ae;fill-opacity:1;fill-rule:evenodd;stroke:#000000;stroke-width:0.12102496;stroke-linecap:butt;stroke-linejoin:miter;stroke-miterlimit:4;stroke-dasharray:none;stroke-opacity:1" />
      <path
         sodipodi:nodetypes="ccccc"
         id="path4801"
         d="M 27.658768,15.00839 L 31.286457,10.081235 L 24.464238,9.8917289 L 17.642022,16.63273 L 27.658768,15.00839 z"
         style="opacity:1;fill:#ae86ae;fill-opacity:1;fill-rule:evenodd;stroke:#000000;stroke-width:0.12102496;stroke-linecap:butt;stroke-linejoin:miter;stroke-miterlimit:4;stroke-dasharray:none;stroke-opacity:1" />
      <path
         transform="matrix(0.3032096,0,0,0.3032096,0.1533237,-48.97578)"
         d="M 63.124999,217.63004 A 7.5892859,7.5892859 0 1 1 47.946427,217.63004 A 7.5892859,7.5892859 0 1 1 63.124999,217.63004 z"
         sodipodi:ry="7.5892859"
         sodipodi:rx="7.5892859"
         sodipodi:cy="217.63004"
         sodipodi:cx="55.535713"
         id="path4803"
         style="opacity:1;fill:#b6658e;fill-opacity:1;fill-rule:nonzero;stroke:#000000;stroke-width:0.3991462;stroke-linecap:round;stroke-linejoin:miter;stroke-miterlimit:4;stroke-dasharray:none;stroke-dashoffset:0;stroke-opacity:1"
         sodipodi:type="arc" />
    </g>
  </g>
</svg>
